<svg class="icon" style="width: 1em; height: 1em;vertical-align: middle;fill: currentColor;overflow: hidden;" viewBox="0 0 1024 1024" version="1.1" xmlns="http://www.w3.org/2000/svg"><path d="M418.0992 68.3008c5.7344 7.0656 4.3008 14.9504-4.3008 23.4496-9.9328 4.3008-18.5344 2.8672-25.6-4.3008C365.4656 51.9168 332.8 34.0992 290.0992 34.0992c-32.6656 0-60.8256 11.776-84.2752 35.2256C182.3744 92.7744 170.7008 120.9344 170.7008 153.6c0 32.6656 11.776 60.8256 35.2256 84.2752C229.376 261.3248 257.4336 273.1008 290.0992 273.1008 301.4656 273.1008 307.2 278.7328 307.2 290.0992 307.2 301.4656 301.4656 307.2 290.0992 307.2 219.0336 307.2 158.6176 332.0832 108.7488 381.8496 58.9824 431.616 34.0992 492.1344 34.0992 563.2c0 11.3664-5.7344 17.1008-17.1008 17.1008S0 574.5664 0 563.2c0-65.4336 19.8656-123.6992 59.6992-174.8992s90.3168-86.016 151.4496-104.5504C161.3824 255.2832 136.4992 211.8656 136.4992 153.6c0-42.7008 14.9504-78.9504 44.8512-108.8512C211.1488 14.9504 247.5008 0 290.0992 0 344.1664 0 386.8672 22.7328 418.0992 68.3008zM597.2992 420.2496c71.0656 18.5344 130.4576 56.5248 178.176 114.176 47.616 57.5488 73.6256 124.1088 77.824 199.4752 0 11.3664-5.7344 17.1008-17.1008 17.1008C824.9344 750.8992 819.2 745.2672 819.2 733.9008c-4.3008-81.1008-35.9424-149.7088-94.9248-205.824C665.2928 471.8592 594.5344 443.6992 512 443.6992S358.7072 471.8592 299.7248 527.9744C240.7424 584.192 209.1008 652.8 204.8 733.9008c0 11.3664-5.7344 17.1008-17.1008 17.1008-11.3664 0-17.1008-5.7344-17.1008-17.1008 4.3008-75.3664 30.208-141.824 77.824-199.4752 47.616-57.6512 107.008-95.6416 178.176-114.176C369.7664 387.584 341.2992 338.5344 341.2992 273.1008c0-46.8992 16.6912-87.1424 50.176-120.5248C424.8576 119.0912 465.1008 102.4 512 102.4c46.8992 0 87.1424 16.6912 120.5248 50.176 33.3824 33.3824 50.176 73.6256 50.176 120.5248C682.7008 338.5344 654.2336 387.584 597.2992 420.2496zM415.9488 369.0496C442.9824 396.0832 475.0336 409.6 512 409.6s69.0176-13.5168 96.0512-40.5504C634.9824 342.016 648.4992 310.0672 648.4992 273.1008c0-36.9664-13.5168-69.0176-40.5504-96.0512C581.0176 150.016 548.9664 136.4992 512 136.4992S442.9824 150.016 415.9488 177.0496C389.0176 204.0832 375.5008 236.1344 375.5008 273.1008 375.5008 310.0672 389.0176 342.016 415.9488 369.0496zM812.8512 283.7504c61.1328 18.5344 111.616 53.3504 151.4496 104.5504C1004.1344 439.5008 1024 497.7664 1024 563.2c0 11.3664-5.7344 17.1008-17.1008 17.1008-11.3664 0-17.1008-5.7344-17.1008-17.1008 0-71.0656-24.8832-131.584-74.6496-181.3504C865.3824 332.0832 804.9664 307.2 733.9008 307.2 722.5344 307.2 716.8 301.4656 716.8 290.0992c0-11.3664 5.7344-17.1008 17.1008-17.1008 32.6656 0 60.8256-11.776 84.2752-35.2256C841.6256 214.4256 853.2992 186.2656 853.2992 153.6c0-32.6656-11.776-60.8256-35.2256-84.2752C794.624 45.8752 766.5664 34.0992 733.9008 34.0992c-42.7008 0-76.0832 17.8176-100.2496 53.3504C629.3504 97.3824 621.4656 99.5328 610.0992 93.9008c-9.9328-8.4992-11.3664-16.384-4.3008-23.4496C634.2656 23.4496 676.9664 0 733.9008 0c42.7008 0 78.9504 14.9504 108.7488 44.7488C872.5504 74.6496 887.5008 110.8992 887.5008 153.6 887.5008 211.8656 862.6176 255.2832 812.8512 283.7504z" /></svg>